<svg data-name="Слой 1" xmlns="http://www.w3.org/2000/svg" xmlns:xlink="http://www.w3.org/1999/xlink" viewBox="0 0 215 60"><defs><linearGradient id="a" x1="92" y1="37.17" x2="88.55" y2="36.11" gradientTransform="matrix(8.19 0 0 -8.19 -718.51 333.05)" gradientUnits="userSpaceOnUse"><stop offset="0" stop-color="#fff"/><stop offset="1" stop-color="#fff" stop-opacity="0"/></linearGradient><linearGradient id="d" x1="88.98" y1="37.17" x2="92.44" y2="36.11" xlink:href="#a"/><linearGradient id="e" x1="90.6" y1="36.04" x2="87.76" y2="35.05" xlink:href="#a"/><linearGradient id="f" x1="90.38" y1="36.04" x2="93.22" y2="35.05" xlink:href="#a"/><linearGradient id="b" x1="88.93" y1="37.03" x2="92.84" y2="33.92" gradientTransform="matrix(8.19 0 0 -8.19 -718.51 333.05)" gradientUnits="userSpaceOnUse"><stop offset="0" stop-color="#72caff"/><stop offset="1" stop-color="#506bff"/></linearGradient><linearGradient id="i" x1="92.06" y1="37.03" x2="88.15" y2="33.92" xlink:href="#b"/><linearGradient id="c" x1="88.53" y1="35.87" x2="91.26" y2="33.71" gradientTransform="matrix(8.19 0 0 -8.19 -718.51 333.05)" gradientUnits="userSpaceOnUse"><stop offset="0" stop-color="#4380fc"/><stop offset="1" stop-color="#5540f6"/></linearGradient><linearGradient id="l" x1="92.45" y1="35.87" x2="89.72" y2="33.71" xlink:href="#c"/><mask id="g" x=".05" y="7.86" width="35.66" height="52.14" maskUnits="userSpaceOnUse"><path fill="url(#a)" d="M.05 7.86h35.66V60H.05z"/></mask><mask id="h" x="8.73" y="7.86" width="35.66" height="52.14" maskUnits="userSpaceOnUse"><path fill="url(#d)" d="M8.73 7.86h35.66V60H8.73z"/></mask><mask id="j" x=".05" y="23.49" width="24.83" height="36.51" maskUnits="userSpaceOnUse"><path fill="url(#e)" d="M.05 23.49h24.83V60H.05z"/></mask><mask id="k" x="19.56" y="23.49" width="24.83" height="36.51" maskUnits="userSpaceOnUse"><path fill="url(#f)" d="M19.56 23.49h24.83V60H19.56z"/></mask></defs><g data-name="Слой_1"><g data-name="1998442816"><path d="M22.21 60a22.18 22.18 0 0022.18-22.17C44.39 23.56 32.27 9 22.21 0 12.16 9 0 23.56 0 37.83A22.17 22.17 0 0022.21 60z" fill="#def2fe"/><path d="M22.21 60c11.59 0 21-9.71 21-21.68a22.07 22.07 0 00-4.17-13C34.3 18.2 22.75 8 22.21 0c-.53 8-12.09 18.2-16.82 25.36a22.09 22.09 0 00-4.16 13C1.24 50.29 10.62 60 22.21 60z" fill="#bbe3fe"/><g mask="url(#g)"><path d="M22.21 60c14.54-.23 17.35-14.66 8.32-24.2-7.9-8.36-25.71-13.12-16.17-27.94-7 7.9-14.32 19-14.32 30A22.17 22.17 0 0022.21 60z" fill="url(#b)"/></g><g mask="url(#h)"><path d="M22.21 60C7.68 59.77 4.87 45.34 13.9 35.8c7.91-8.36 25.72-13.11 16.17-27.94 7 7.9 14.32 19 14.32 30A22.18 22.18 0 0122.21 60z" fill="url(#i)"/></g><g mask="url(#j)"><path d="M3.67 23.49A34.07 34.07 0 000 37.83 22.19 22.19 0 0021.25 60h1c1.76-.7 3.25-4.13 2.41-7.36-1.9-7.35-6.79-8.28-12.71-9.73-7.06-1.73-12.84-6.26-8.28-19.42z" fill="url(#c)"/></g><g mask="url(#k)"><path d="M40.77 23.49a34.19 34.19 0 013.62 14.33A22.2 22.2 0 0123.18 60h-1c-1.76-.7-3.25-4.13-2.41-7.36 1.91-7.35 6.79-8.28 12.71-9.73 7.07-1.73 12.84-6.26 8.29-19.42z" fill="url(#l)"/></g><path d="M78.3 30.46a11.23 11.23 0 00-3.06-2.32 7.42 7.42 0 00-3.24-.75 6.29 6.29 0 00-4.84 2 7.4 7.4 0 00-1.88 5.24 7.27 7.27 0 001.87 5.19 6.34 6.34 0 004.85 2 9.11 9.11 0 003.54-.74A13.9 13.9 0 0079 38.89l-.36 6.19a12 12 0 01-3.27 1.54 12.68 12.68 0 01-3.7.53 12.26 12.26 0 01-3.95-.64 11.63 11.63 0 01-3.48-1.9 11.8 11.8 0 01-3.45-4.32 12.94 12.94 0 01-1.2-5.55 13.26 13.26 0 01.88-4.86A11.83 11.83 0 0167 23.21a12.21 12.21 0 014.71-.92 12.55 12.55 0 013.75.55 12.4 12.4 0 013.41 1.65l-.6 6zm8.63 15.94h-5.11v-23l5.11-.7zm7.69-8.59l6.28-.2v-.22a2.46 2.46 0 00-.8-1.88 2.91 2.91 0 00-2-.73 3.32 3.32 0 00-2.28.79 3.75 3.75 0 00-1.2 2.23zm9.61 3.42l-.56 4.45a14.52 14.52 0 01-2.91 1 12.33 12.33 0 01-2.89.34A8.19 8.19 0 0192 45a7.12 7.12 0 01-2.22-5.43 8 8 0 012.43-5.89 8.07 8.07 0 015.9-2.41A6.92 6.92 0 01103 33a6 6 0 011.91 4.57c0 .28 0 .74-.07 1.38v.09l-.45.65-9.88.31a3.28 3.28 0 001.22 2.38 4.22 4.22 0 002.79.92 8 8 0 002.64-.52 15.46 15.46 0 003.06-1.53zm12.91-5.64a3.67 3.67 0 00-.87-.37 3.07 3.07 0 00-.81-.11A3 3 0 00113 36.3a5.13 5.13 0 00-.12 5.86A2.59 2.59 0 00115 43.3a2.22 2.22 0 001-.27 4.5 4.5 0 001.09-.81zm5-3.68V41c0 1.14 0 2.1.07 2.86s.11 1.42.2 2l-4.67 1.29-.45-1.38a7.49 7.49 0 01-1.86 1 5.35 5.35 0 01-1.91.34 6 6 0 01-4.71-2.23 8.25 8.25 0 01-1.92-5.56 8.15 8.15 0 012.14-5.8 7.1 7.1 0 015.41-2.28 6.47 6.47 0 011.58.21 10.84 10.84 0 011.82.64zm8.96 14.49H126V31.91h4.71l.1 2.54a5.77 5.77 0 012-2.21 5.51 5.51 0 012.9-.7h.4v5.4h-1.1a6.26 6.26 0 00-3.16.54c-.55.36-.82 1.22-.82 2.59zm22.53-4.86v-5.82h-2.1v-3.81h2.1v-4.35l5.14-.7v5h3.42v3.81h-3.42v6.16a5.64 5.64 0 00.53 2.84 4.81 4.81 0 002 1.61l-5.73.39a3 3 0 01-1.51-1.54 10.56 10.56 0 01-.43-3.65zm15-2.38a5.05 5.05 0 00.79 3 2.39 2.39 0 004.08 0 5.08 5.08 0 00.79-3 5.11 5.11 0 00-.79-3 2.39 2.39 0 00-4.08 0 5.09 5.09 0 00-.77 2.99zm-5.14 0a7.67 7.67 0 012.26-5.69 8.45 8.45 0 0111.45 0 7.67 7.67 0 012.27 5.69 7.7 7.7 0 01-2.27 5.71 8.42 8.42 0 01-11.44 0 7.7 7.7 0 01-2.27-5.71zm24 7.26h-5V31.91h4.66v2.42a8.25 8.25 0 012.46-2.13 5.87 5.87 0 012.82-.7 4.48 4.48 0 013.5 1.32 5.57 5.57 0 011.19 3.85v9.73h-5v-8.31a2.69 2.69 0 00-.47-1.72 1.67 1.67 0 00-1.38-.58 2.47 2.47 0 00-2 .88 4.1 4.1 0 00-.7 2.58zm17.17-8.59l6.28-.2v-.22a2.46 2.46 0 00-.8-1.88 2.92 2.92 0 00-2-.73 3.36 3.36 0 00-2.28.79 3.75 3.75 0 00-1.17 2.23zm9.6 3.42l-.56 4.45a14.51 14.51 0 01-2.91 1 12.35 12.35 0 01-2.9.34 8.17 8.17 0 01-5.84-2.04 7.12 7.12 0 01-2.22-5.43 8 8 0 012.42-5.89 8.09 8.09 0 015.91-2.41A6.92 6.92 0 01213 33a6 6 0 012 4.57c0 .28 0 .74-.07 1.38v.09l-.45.65-9.88.27a3.31 3.31 0 001.22 2.38 4.25 4.25 0 002.8.92 8 8 0 002.64-.52 15.2 15.2 0 003.05-1.53zm-75.48 4.51v-4a19.52 19.52 0 003 1.65 5.22 5.22 0 002 .43 2.12 2.12 0 001.27-.34 1.11 1.11 0 00.15-1.71 3.27 3.27 0 00-1.15-.61l-1.87-.66a6.16 6.16 0 01-2.78-1.76 4 4 0 01-.94-2.68 4.45 4.45 0 011.53-3.52 6 6 0 014.01-1.35 10.5 10.5 0 012.48.33 19.21 19.21 0 012.92 1l-.63 3.52a7.69 7.69 0 00-2.11-1.29 5.67 5.67 0 00-2.14-.47 2 2 0 00-1.21.35 1 1 0 00-.47.87.94.94 0 00.27.71 3.2 3.2 0 001.18.57l1.74.63a6.76 6.76 0 012.92 1.74 4 4 0 01.88 2.69 4.82 4.82 0 01-1.57 3.79 6.28 6.28 0 01-4.3 1.38 10.3 10.3 0 01-2.59-.33 11.37 11.37 0 01-2.57-1z" fill="#053599"/></g></g></svg>