<svg id="Слой_1" data-name="Слой 1" xmlns="http://www.w3.org/2000/svg" xmlns:xlink="http://www.w3.org/1999/xlink" viewBox="0 0 215 60"><defs><style>.cls-1{fill:url(#Безымянный_градиент);}.cls-2{fill:url(#Безымянный_градиент_2);}.cls-3{fill:url(#Безымянный_градиент_3);}.cls-4{fill:url(#Безымянный_градиент_4);}.cls-5{fill:#def2fe;}.cls-6{fill:#bbe3fe;}.cls-7{mask:url(#mask);}.cls-8{fill:url(#Безымянный_градиент_5);}.cls-9{mask:url(#mask-2);}.cls-10{fill:url(#Безымянный_градиент_6);}.cls-11{mask:url(#mask-3);}.cls-12{fill:url(#Безымянный_градиент_7);}.cls-13{mask:url(#mask-4);}.cls-14{fill:url(#Безымянный_градиент_8);}.cls-15{fill:#053599;}</style><linearGradient id="Безымянный_градиент" x1="92" y1="37.17" x2="88.55" y2="36.11" gradientTransform="matrix(8.19, 0, 0, -8.19, -718.51, 333.05)" gradientUnits="userSpaceOnUse"><stop offset="0" stop-color="#fff"/><stop offset="1" stop-color="#fff" stop-opacity="0"/></linearGradient><linearGradient id="Безымянный_градиент_2" x1="88.98" y1="37.17" x2="92.44" y2="36.11" xlink:href="#Безымянный_градиент"/><linearGradient id="Безымянный_градиент_3" x1="90.6" y1="36.04" x2="87.76" y2="35.05" xlink:href="#Безымянный_градиент"/><linearGradient id="Безымянный_градиент_4" x1="90.38" y1="36.04" x2="93.22" y2="35.05" xlink:href="#Безымянный_градиент"/><mask id="mask" x="0.05" y="7.86" width="35.66" height="52.14" maskUnits="userSpaceOnUse"><g id="id0"><rect class="cls-1" x="0.05" y="7.86" width="35.66" height="52.14"/></g></mask><linearGradient id="Безымянный_градиент_5" x1="88.93" y1="37.03" x2="92.84" y2="33.92" gradientTransform="matrix(8.19, 0, 0, -8.19, -718.51, 333.05)" gradientUnits="userSpaceOnUse"><stop offset="0" stop-color="#72caff"/><stop offset="1" stop-color="#506bff"/></linearGradient><mask id="mask-2" x="8.73" y="7.86" width="35.66" height="52.14" maskUnits="userSpaceOnUse"><g id="id2"><rect class="cls-2" x="8.73" y="7.86" width="35.66" height="52.14"/></g></mask><linearGradient id="Безымянный_градиент_6" x1="92.06" y1="37.03" x2="88.15" y2="33.92" xlink:href="#Безымянный_градиент_5"/><mask id="mask-3" x="0.05" y="23.49" width="24.83" height="36.51" maskUnits="userSpaceOnUse"><g id="id4"><rect class="cls-3" x="0.05" y="23.49" width="24.83" height="36.51"/></g></mask><linearGradient id="Безымянный_градиент_7" x1="88.53" y1="35.87" x2="91.26" y2="33.71" gradientTransform="matrix(8.19, 0, 0, -8.19, -718.51, 333.05)" gradientUnits="userSpaceOnUse"><stop offset="0" stop-color="#4380fc"/><stop offset="1" stop-color="#5540f6"/></linearGradient><mask id="mask-4" x="19.56" y="23.49" width="24.83" height="36.51" maskUnits="userSpaceOnUse"><g id="id6"><rect class="cls-4" x="19.56" y="23.49" width="24.83" height="36.51"/></g></mask><linearGradient id="Безымянный_градиент_8" x1="92.45" y1="35.87" x2="89.72" y2="33.71" xlink:href="#Безымянный_градиент_7"/></defs><title>logotext</title><g id="Слой_1-2" data-name="Слой_1"><g id="_1998442816" data-name=" 1998442816"><path class="cls-5" d="M22.21,60A22.18,22.18,0,0,0,44.39,37.83C44.39,23.56,32.27,9,22.21,0,12.16,9,0,23.56,0,37.83A22.17,22.17,0,0,0,22.21,60Z"/><path class="cls-6" d="M22.21,60c11.59,0,21-9.71,21-21.68a22.07,22.07,0,0,0-4.17-13C34.3,18.2,22.75,8,22.21,0,21.68,8,10.12,18.2,5.39,25.36a22.09,22.09,0,0,0-4.16,13C1.24,50.29,10.62,60,22.21,60Z"/><g class="cls-7"><path class="cls-8" d="M22.21,60c14.54-.23,17.35-14.66,8.32-24.2C22.63,27.44,4.82,22.68,14.36,7.86c-7,7.9-14.32,19-14.32,30A22.17,22.17,0,0,0,22.21,60Z"/></g><g class="cls-9"><path class="cls-10" d="M22.21,60C7.68,59.77,4.87,45.34,13.9,35.8c7.91-8.36,25.72-13.11,16.17-27.94,7,7.9,14.32,19,14.32,30A22.18,22.18,0,0,1,22.21,60Z"/></g><g class="cls-11"><path class="cls-12" d="M3.67,23.49A34.07,34.07,0,0,0,0,37.83,22.19,22.19,0,0,0,21.25,60l1,0c1.76-.7,3.25-4.13,2.41-7.36-1.9-7.35-6.79-8.28-12.71-9.73C4.89,41.18-.89,36.65,3.67,23.49Z"/></g><g class="cls-13"><path class="cls-14" d="M40.77,23.49a34.19,34.19,0,0,1,3.62,14.33A22.2,22.2,0,0,1,23.18,60l-1,0c-1.76-.7-3.25-4.13-2.41-7.36,1.91-7.35,6.79-8.28,12.71-9.73C39.55,41.18,45.32,36.65,40.77,23.49Z"/></g><path class="cls-15" d="M78.3,30.46a11.23,11.23,0,0,0-3.06-2.32A7.42,7.42,0,0,0,72,27.39a6.29,6.29,0,0,0-4.84,2,7.4,7.4,0,0,0-1.88,5.24,7.27,7.27,0,0,0,1.87,5.19,6.34,6.34,0,0,0,4.85,2,9.11,9.11,0,0,0,3.54-.74A13.9,13.9,0,0,0,79,38.89l-.36,6.19a12,12,0,0,1-3.27,1.54,12.68,12.68,0,0,1-3.7.53,12.26,12.26,0,0,1-3.95-.64,11.63,11.63,0,0,1-3.48-1.9,11.8,11.8,0,0,1-3.45-4.32,12.94,12.94,0,0,1-1.2-5.55,13.26,13.26,0,0,1,.88-4.86A11.83,11.83,0,0,1,67,23.21a12.21,12.21,0,0,1,4.71-.92,12.55,12.55,0,0,1,3.75.55,12.4,12.4,0,0,1,3.41,1.65l-.6,6ZM86.93,46.4H81.82v-23l5.11-.7Zm7.69-8.59,6.28-.2v-.22a2.46,2.46,0,0,0-.8-1.88,2.91,2.91,0,0,0-2-.73,3.32,3.32,0,0,0-2.28.79A3.75,3.75,0,0,0,94.62,37.8Zm9.61,3.42-.56,4.45a14.52,14.52,0,0,1-2.91,1,12.33,12.33,0,0,1-2.89.34A8.19,8.19,0,0,1,92,45a7.12,7.12,0,0,1-2.22-5.43,8,8,0,0,1,2.43-5.89,8.07,8.07,0,0,1,5.9-2.41A6.92,6.92,0,0,1,103,33a6,6,0,0,1,1.91,4.57c0,.28,0,.74-.07,1.38l0,.09-.45.65L94.51,40a3.28,3.28,0,0,0,1.22,2.38,4.22,4.22,0,0,0,2.79.92,8,8,0,0,0,2.64-.52,15.46,15.46,0,0,0,3.06-1.53Zm12.91-5.64a3.67,3.67,0,0,0-.87-.37,3.07,3.07,0,0,0-.81-.11A3,3,0,0,0,113,36.3a5.13,5.13,0,0,0-.12,5.86A2.59,2.59,0,0,0,115,43.3a2.22,2.22,0,0,0,1-.27,4.5,4.5,0,0,0,1.09-.81Zm5-3.68V41c0,1.14,0,2.1.07,2.86s.11,1.42.2,2l-4.67,1.29-.45-1.38a7.49,7.49,0,0,1-1.86,1,5.35,5.35,0,0,1-1.91.34,6,6,0,0,1-4.71-2.23,8.25,8.25,0,0,1-1.92-5.56,8.15,8.15,0,0,1,2.14-5.8,7.1,7.1,0,0,1,5.41-2.28,6.47,6.47,0,0,1,1.58.21,10.84,10.84,0,0,1,1.82.64ZM131.1,46.4H126V31.91h4.71l.1,2.54a5.77,5.77,0,0,1,2-2.21,5.51,5.51,0,0,1,2.9-.7h.4v5.4h-1.1a6.26,6.26,0,0,0-3.16.54c-.55.36-.82,1.22-.82,2.59Zm22.53-4.86V35.72h-2.1V31.91h2.1V27.56l5.14-.7v5h3.42v3.81h-3.42v6.16a5.64,5.64,0,0,0,.53,2.84,4.81,4.81,0,0,0,2,1.61l-5.73.39a3,3,0,0,1-1.51-1.54,10.56,10.56,0,0,1-.43-3.65Zm15-2.38a5.05,5.05,0,0,0,.79,3,2.39,2.39,0,0,0,4.08,0,5.08,5.08,0,0,0,.79-3,5.11,5.11,0,0,0-.79-3,2.39,2.39,0,0,0-4.08,0A5.09,5.09,0,0,0,168.65,39.15Zm-5.14,0a7.67,7.67,0,0,1,2.26-5.69,8.45,8.45,0,0,1,11.45,0,7.67,7.67,0,0,1,2.27,5.69,7.7,7.7,0,0,1-2.27,5.71,8.42,8.42,0,0,1-11.44,0,7.7,7.7,0,0,1-2.27-5.71Zm24,7.26h-5V31.91h4.66v2.42a8.25,8.25,0,0,1,2.46-2.13,5.87,5.87,0,0,1,2.82-.7,4.48,4.48,0,0,1,3.5,1.32,5.57,5.57,0,0,1,1.19,3.85V46.4h-5V38.09a2.69,2.69,0,0,0-.47-1.72,1.67,1.67,0,0,0-1.38-.58,2.47,2.47,0,0,0-2,.88,4.1,4.1,0,0,0-.7,2.58Zm17.17-8.59,6.28-.2v-.22a2.46,2.46,0,0,0-.8-1.88,2.92,2.92,0,0,0-2-.73,3.36,3.36,0,0,0-2.28.79,3.75,3.75,0,0,0-1.17,2.23Zm9.6,3.42-.56,4.45a14.51,14.51,0,0,1-2.91,1,12.35,12.35,0,0,1-2.9.34A8.17,8.17,0,0,1,202.05,45a7.12,7.12,0,0,1-2.22-5.43,8,8,0,0,1,2.42-5.89,8.09,8.09,0,0,1,5.91-2.41A6.92,6.92,0,0,1,213,33,6,6,0,0,1,215,37.57c0,.28,0,.74-.07,1.38l0,.09-.45.65-9.88.27a3.31,3.31,0,0,0,1.22,2.38,4.25,4.25,0,0,0,2.8.92,8,8,0,0,0,2.64-.52,15.2,15.2,0,0,0,3.05-1.53Zm-75.48,4.51v-4a19.52,19.52,0,0,0,3,1.65,5.22,5.22,0,0,0,2,.43,2.12,2.12,0,0,0,1.27-.34,1.11,1.11,0,0,0,.15-1.71,3.27,3.27,0,0,0-1.15-.61l-1.87-.66a6.16,6.16,0,0,1-2.78-1.76,4,4,0,0,1-.94-2.68,4.45,4.45,0,0,1,1.53-3.52A6,6,0,0,1,144,31.21a10.5,10.5,0,0,1,2.48.33,19.21,19.21,0,0,1,2.92,1l-.63,3.52a7.69,7.69,0,0,0-2.11-1.29,5.67,5.67,0,0,0-2.14-.47,2,2,0,0,0-1.21.35,1,1,0,0,0-.47.87.94.94,0,0,0,.27.71,3.2,3.2,0,0,0,1.18.57l1.74.63a6.76,6.76,0,0,1,2.92,1.74,4,4,0,0,1,.88,2.69,4.82,4.82,0,0,1-1.57,3.79,6.28,6.28,0,0,1-4.3,1.38,10.3,10.3,0,0,1-2.59-.33,11.37,11.37,0,0,1-2.57-1Z"/></g></g></svg>